<svg xmlns="http://www.w3.org/2000/svg" width="58" height="48" viewBox="0 0 58 48" fill="none"><path d="M26.4832 5.91133C26.4832 2.64659 29.1297 0 32.3945 0H51.7836C55.0484 0 57.695 2.64659 57.695 5.91133V16.0788C57.695 19.3436 55.0484 21.9901 51.7836 21.9901H32.3945C29.1297 21.9901 26.4832 19.3436 26.4832 16.0788V5.91133Z" fill="#F5FED8"></path><path d="M42.5619 26.7193C42.5619 38.4723 33.0342 48.0001 21.2812 48.0001C9.5281 48.0001 0.000366211 38.4723 0.000366211 26.7193C0.000366211 14.9662 9.5281 5.43848 21.2812 5.43848C33.0342 5.43848 42.5619 14.9662 42.5619 26.7193Z" fill="#C1FE00"></path><path fill-rule="evenodd" clip-rule="evenodd" d="M21.2812 47.8818C32.9689 47.8818 42.4437 38.407 42.4437 26.7193C42.4437 15.0315 32.9689 5.5567 21.2812 5.5567C9.59339 5.5567 0.118593 15.0315 0.118593 26.7193C0.118593 38.407 9.59339 47.8818 21.2812 47.8818ZM21.2812 48.0001C33.0342 48.0001 42.5619 38.4723 42.5619 26.7193C42.5619 14.9662 33.0342 5.43848 21.2812 5.43848C9.5281 5.43848 0.000366211 14.9662 0.000366211 26.7193C0.000366211 38.4723 9.5281 48.0001 21.2812 48.0001Z" fill="url(#paint0_linear_65_894)"></path><path fill-rule="evenodd" clip-rule="evenodd" d="M21.2812 47.8818C32.9689 47.8818 42.4437 38.407 42.4437 26.7193C42.4437 15.0315 32.9689 5.5567 21.2812 5.5567C9.59339 5.5567 0.118593 15.0315 0.118593 26.7193C0.118593 38.407 9.59339 47.8818 21.2812 47.8818ZM21.2812 48.0001C33.0342 48.0001 42.5619 38.4723 42.5619 26.7193C42.5619 14.9662 33.0342 5.43848 21.2812 5.43848C9.5281 5.43848 0.000366211 14.9662 0.000366211 26.7193C0.000366211 38.4723 9.5281 48.0001 21.2812 48.0001Z" fill="url(#paint1_radial_65_894)"></path><circle cx="13.4782" cy="21.99" r="2.36453" fill="black"></circle><circle cx="28.8477" cy="21.99" r="2.36453" fill="black"></circle><path d="M27.1889 30.5635C27.7727 30.8558 28.0159 31.5727 27.64 32.1066C27.008 33.0043 26.1936 33.7645 25.2454 34.3348C23.958 35.109 22.477 35.5012 20.9751 35.4656C19.4733 35.43 18.0125 34.968 16.7632 34.1336C15.8432 33.519 15.0658 32.7211 14.477 31.7944C14.1269 31.2433 14.4037 30.5387 15.0008 30.2744L15.3952 30.0999C15.9922 29.8356 16.6809 30.1171 17.0747 30.6379C17.4185 31.0926 17.8375 31.489 18.3161 31.8087C19.1245 32.3486 20.0696 32.6475 21.0414 32.6706C22.0132 32.6936 22.9715 32.4399 23.8045 31.9389C24.2978 31.6422 24.735 31.2661 25.1 30.8282C25.5181 30.3267 26.2193 30.0781 26.8032 30.3704L27.1889 30.5635Z" fill="black"></path><defs><linearGradient id="paint0_linear_65_894" x1="6.12546" y1="3.91842" x2="46.0198" y2="27.2113" gradientUnits="userSpaceOnUse"><stop offset="0.188941" stop-color="#F1FFE7" stop-opacity="0.523483"></stop><stop offset="0.526042" stop-color="#8AFF88"></stop><stop offset="1" stop-color="#D5FFB4" stop-opacity="0.1"></stop></linearGradient><radialGradient id="paint1_radial_65_894" cx="0" cy="0" r="1" gradientUnits="userSpaceOnUse" gradientTransform="translate(6.36104 46.6067) rotate(-50.9773) scale(33.4248 54.6534)"><stop stop-color="white"></stop><stop offset="1" stop-color="white" stop-opacity="0"></stop></radialGradient></defs></svg>