<svg xmlns="http://www.w3.org/2000/svg" width="59" height="48" viewBox="0 0 59 48" fill="none"><path d="M27.0013 17.3333C27.0013 12.1787 31.18 8 36.3347 8H49.668C54.8227 8 59.0013 12.1787 59.0013 17.3333V30.6667C59.0013 35.8213 54.8227 40 49.668 40H36.3347C31.18 40 27.0013 35.8213 27.0013 30.6667V17.3333Z" fill="#F5FED8"></path><path d="M0.334686 9.33333C0.334686 4.17867 4.51336 0 9.66802 0H39.0014C44.156 0 48.3347 4.17868 48.3347 9.33333V38.6667C48.3347 43.8213 44.156 48 39.0014 48H9.66802C4.51336 48 0.334686 43.8213 0.334686 38.6667V9.33333Z" fill="#C1FE00"></path><g filter="url(#filter0_b_65_914)"><path fill-rule="evenodd" clip-rule="evenodd" d="M39.0014 0.133333H9.66802C4.587 0.133333 0.46802 4.25231 0.46802 9.33333V38.6667C0.46802 43.7477 4.587 47.8667 9.66802 47.8667H39.0014C44.0824 47.8667 48.2014 43.7477 48.2014 38.6667V9.33333C48.2014 4.25231 44.0824 0.133333 39.0014 0.133333ZM9.66802 0C4.51336 0 0.334686 4.17867 0.334686 9.33333V38.6667C0.334686 43.8213 4.51336 48 9.66802 48H39.0014C44.156 48 48.3347 43.8213 48.3347 38.6667V9.33333C48.3347 4.17868 44.156 0 39.0014 0H9.66802Z" fill="#C1FE00"></path></g><rect x="9.93311" y="32.5332" width="10.6667" height="2.66667" rx="1.33333" fill="black"></rect><rect x="28.067" y="30.1333" width="10.6667" height="2.66667" rx="1.33333" fill="black"></rect><rect x="28.067" y="34.1333" width="10.6667" height="2.66667" rx="1.33333" fill="black"></rect><rect x="28.067" y="13.6001" width="10.6667" height="2.66667" rx="1.33333" fill="black"></rect><rect x="34.7336" y="9.6001" width="10.6667" height="2.66667" rx="1.33333" transform="rotate(90 34.7336 9.6001)" fill="black"></rect><rect x="12.4397" y="10.2192" width="10.6667" height="2.66667" rx="1.33333" transform="rotate(45 12.4397 10.2192)" fill="black"></rect><rect x="19.9824" y="12.105" width="10.6667" height="2.66667" rx="1.33333" transform="rotate(135 19.9824 12.105)" fill="black"></rect><defs><filter id="filter0_b_65_914" x="-7.66531" y="-8" width="64" height="64" filterUnits="userSpaceOnUse" color-interpolation-filters="sRGB"><feGaussianBlur stdDeviation="4"></feGaussianBlur></filter></defs></svg>