<svg xmlns="http://www.w3.org/2000/svg" width="64" height="64" viewBox="0 0 64 64" fill="none"><path d="M11.4998 32.1997H52.4998C53.2172 32.1997 53.9052 31.9147 54.4125 31.4074C54.9198 30.9001 55.2048 30.2121 55.2048 29.4947C55.2048 28.7773 54.9198 28.0892 54.4125 27.582C53.9052 27.0747 53.2172 26.7897 52.4998 26.7897H43.9998L39.4398 13.7897C38.8992 12.2506 37.894 10.9174 36.563 9.97418C35.2321 9.031 33.6411 8.52441 32.0098 8.52441C30.3785 8.52441 28.7875 9.031 27.4566 9.97418C26.1256 10.9174 25.1204 12.2506 24.5798 13.7897L19.9998 26.7897H11.4998C10.7824 26.7897 10.0944 27.0747 9.58708 27.582C9.07979 28.0892 8.7948 28.7773 8.7948 29.4947C8.7948 30.2121 9.07979 30.9001 9.58708 31.4074C10.0944 31.9147 10.7824 32.1997 11.4998 32.1997ZM29.6698 15.5597C29.8395 15.0772 30.1548 14.6594 30.5722 14.3638C30.9895 14.0682 31.4884 13.9094 31.9998 13.9094C32.5112 13.9094 33.01 14.0682 33.4274 14.3638C33.8448 14.6594 34.1601 15.0772 34.3298 15.5597L38.2648 26.7897H25.7348L29.6698 15.5597Z" fill="black"></path><path d="M52.5 37.1003H11.5C10.8123 37.1422 10.1665 37.4449 9.69436 37.9466C9.22223 38.4484 8.95935 39.1114 8.95935 39.8003C8.95935 40.4893 9.22223 41.1523 9.69436 41.654C10.1665 42.1558 10.8123 42.4585 11.5 42.5003H14.5L11.21 51.9003C10.9809 52.5752 11.0275 53.3132 11.3395 53.954C11.6516 54.5947 12.2039 55.0864 12.8764 55.3222C13.549 55.558 14.2874 55.5189 14.9313 55.2133C15.5751 54.9078 16.0724 54.3605 16.315 53.6903L20.23 42.5003H43.77L47.685 53.6803C47.8709 54.2085 48.2159 54.6661 48.6726 54.9902C49.1292 55.3143 49.675 55.4891 50.235 55.4903C50.54 55.4905 50.8427 55.438 51.13 55.3353C51.8068 55.0984 52.3618 54.6024 52.6731 53.9565C52.9844 53.3105 53.0264 52.5673 52.79 51.8903L49.5 42.5003H52.5C53.2174 42.5003 53.9054 42.2153 54.4127 41.7081C54.92 41.2008 55.205 40.5127 55.205 39.7953C55.205 39.0779 54.92 38.3899 54.4127 37.8826C53.9054 37.3753 53.2174 37.0903 52.5 37.0903V37.1003Z" fill="black"></path></svg>