<svg xmlns="http://www.w3.org/2000/svg" width="64" height="64" viewBox="0 0 64 64" fill="none"><path d="M23.8141 39.1944L29.4091 29.4994C29.5136 29.3188 29.6638 29.1688 29.8446 29.0645C30.0254 28.9603 30.2304 28.9054 30.4391 28.9054C30.6478 28.9054 30.8528 28.9603 31.0336 29.0645C31.2144 29.1688 31.3646 29.3188 31.4691 29.4994L37.6441 40.1894C37.7549 40.3708 37.815 40.5786 37.8183 40.7912C37.8216 41.0037 37.7679 41.2133 37.6627 41.3981C37.5576 41.5828 37.4049 41.736 37.2205 41.8418C37.0361 41.9475 36.8267 42.002 36.6141 41.9994H25.9591C25.6468 41.9992 25.34 42.0813 25.0696 42.2376C24.7992 42.3939 24.5748 42.6187 24.4191 42.8894L20.2591 50.0944C20.1543 50.2749 20.0991 50.4799 20.0989 50.6885C20.0988 50.8972 20.1537 51.1023 20.2583 51.2829C20.3628 51.4636 20.5132 51.6134 20.6942 51.7173C20.8752 51.8211 21.0804 51.8753 21.2891 51.8744H53.7191C53.9278 51.8753 54.1331 51.8211 54.3141 51.7173C54.4951 51.6134 54.6455 51.4636 54.75 51.2829C54.8545 51.1023 54.9095 50.8972 54.9093 50.6885C54.9092 50.4799 54.8539 50.2749 54.7491 50.0944L31.4691 9.7444C31.3646 9.56377 31.2144 9.4138 31.0336 9.30954C30.8528 9.20527 30.6478 9.15039 30.4391 9.15039C30.2304 9.15039 30.0254 9.20527 29.8446 9.30954C29.6638 9.4138 29.5136 9.56377 29.4091 9.7444L12.9091 38.3044C12.8059 38.4851 12.752 38.6898 12.7526 38.8979C12.7532 39.106 12.8083 39.3103 12.9126 39.4904C13.0168 39.6705 13.1664 39.8202 13.3466 39.9244C13.5267 40.0286 13.731 40.0838 13.9391 40.0844H22.2691C22.582 40.084 22.8892 40.0016 23.1603 39.8455C23.4314 39.6893 23.6568 39.4648 23.8141 39.1944Z" fill="black"></path></svg>