<svg xmlns="http://www.w3.org/2000/svg" width="65" height="64" viewBox="0 0 65 64" fill="none"><path d="M23.1 52.3397H10.6C10.1372 52.3398 9.68245 52.2188 9.28098 51.9886C8.8795 51.7583 8.54532 51.427 8.31169 51.0275C8.07806 50.628 7.95313 50.1743 7.94932 49.7115C7.94552 49.2487 8.06298 48.793 8.29001 48.3897L30.33 9.2947C30.5608 8.88592 30.8961 8.5458 31.3016 8.30913C31.707 8.07247 32.168 7.94775 32.6375 7.94775C33.107 7.94775 33.568 8.07247 33.9734 8.30913C34.3789 8.5458 34.7142 8.88592 34.945 9.2947L41.55 20.9547C41.7835 21.3582 41.9065 21.8161 41.9065 22.2822C41.9065 22.7484 41.7835 23.2063 41.55 23.6097L25.395 51.0347C25.1603 51.4342 24.8247 51.765 24.422 51.994C24.0192 52.2231 23.5633 52.3423 23.1 52.3397Z" fill="black"></path><path d="M37.3399 48.3798L44.7649 35.1348C44.9964 34.7261 45.3323 34.3862 45.7381 34.1497C46.1439 33.9132 46.6052 33.7886 47.0749 33.7886C47.5446 33.7886 48.0059 33.9132 48.4117 34.1497C48.8175 34.3862 49.1534 34.7261 49.3849 35.1348L56.8849 48.3748C57.1138 48.7784 57.233 49.2349 57.2306 49.6988C57.2281 50.1628 57.1041 50.618 56.8709 51.0192C56.6377 51.4203 56.3035 51.7533 55.9015 51.985C55.4996 52.2167 55.0439 52.339 54.5799 52.3398H39.6549C39.1908 52.3403 38.7347 52.2191 38.332 51.9884C37.9293 51.7576 37.5942 51.4254 37.36 51.0247C37.1257 50.6241 37.0006 50.169 36.9971 49.7049C36.9936 49.2409 37.1118 48.784 37.3399 48.3798Z" fill="black"></path></svg>