<svg xmlns="http://www.w3.org/2000/svg" width="65" height="64" viewBox="0 0 65 64" fill="none"><path d="M55.3502 40.5L39.5552 13.09C37.8952 10.28 35.2852 8.85498 32.5952 8.85498C31.1483 8.90573 29.7401 9.33565 28.5117 10.1017C27.2832 10.8677 26.2775 11.9431 25.5952 13.22C25.4552 13.5 9.85018 40.5 9.85018 40.5C9.33934 41.3864 9.0081 42.3648 8.87536 43.3792C8.74262 44.3936 8.81099 45.4243 9.07657 46.4123C9.34214 47.4003 9.79972 48.3263 10.4232 49.1375C11.0466 49.9487 11.8238 50.6291 12.7102 51.14C13.5966 51.6508 14.575 51.9821 15.5894 52.1148C16.6038 52.2475 17.6345 52.1792 18.6225 51.9136C19.6105 51.648 20.5366 51.1904 21.3477 50.567C22.1589 49.9435 22.8393 49.1664 23.3502 48.28L32.6002 32.19L41.8752 48.255C42.3608 49.1839 43.0291 50.0052 43.84 50.6694C44.6509 51.3337 45.5877 51.8272 46.5941 52.1204C47.6005 52.4135 48.6558 52.5003 49.6966 52.3755C50.7374 52.2506 51.7422 51.9168 52.6507 51.3939C53.5592 50.871 54.3527 50.17 54.9835 49.3328C55.6144 48.4956 56.0695 47.5396 56.3216 46.5221C56.5738 45.5046 56.6177 44.4467 56.4507 43.4119C56.2838 42.377 55.9095 41.3866 55.3502 40.5ZM26.2402 14.93C26.7402 13.255 28.9752 10.045 32.6002 10.045C36.4102 10.045 38.5502 13.545 38.9602 14.93C39.1966 15.7644 39.26 16.6383 39.1465 17.4981C39.033 18.3579 38.745 19.1855 38.3002 19.93L32.6002 29.805L26.9002 19.93C26.4531 19.1864 26.1638 18.3588 26.0503 17.4986C25.9367 16.6384 26.0014 15.7641 26.2402 14.93Z" fill="black"></path></svg>