<svg xmlns="http://www.w3.org/2000/svg" width="65" height="64" viewBox="0 0 65 64" fill="none"><path d="M48.2011 34.6895C47.4561 34.3345 46.5611 33.9295 45.6761 33.5645C45.0961 34.4845 43.3861 37.3245 43.0411 38.3245C42.8618 38.8469 42.7771 39.3972 42.7911 39.9495C42.7941 40.1823 42.7756 40.415 42.7361 40.6445C42.6524 41.0863 42.4485 41.4965 42.1468 41.8299C41.8451 42.1633 41.4574 42.4071 41.0261 42.5345C40.6311 42.6545 39.8261 42.7945 38.9011 42.9595C37.9262 43.0969 36.9622 43.3024 36.0161 43.5745C35.7096 44.0404 35.3177 44.4442 34.8611 44.7645C34.6804 44.8926 34.4792 44.9889 34.2661 45.0495C34.2661 45.8395 33.9711 46.9495 33.0111 47.1545C32.7771 47.1936 32.5372 47.1784 32.31 47.1099C32.0828 47.0414 31.8744 46.9215 31.7011 46.7595C31.6133 47.052 31.462 47.3215 31.258 47.5488C31.0541 47.7761 30.8024 47.9556 30.5211 48.0745C30.2957 48.1404 30.0595 48.1611 29.8261 48.1353C29.5927 48.1096 29.3667 48.0379 29.1611 47.9245C28.8961 48.5445 28.3711 49.3845 27.4711 49.4245C27.2124 49.4118 26.96 49.3404 26.733 49.2157C26.506 49.0909 26.3104 48.9161 26.1611 48.7045C25.9057 49.1216 25.5511 49.4691 25.1289 49.716C24.7066 49.9629 24.2299 50.1015 23.7411 50.1195H23.5661C23.1338 50.1107 22.7215 49.936 22.4143 49.6317C22.1072 49.3274 21.9288 48.9166 21.9161 48.4845C21.81 48.5437 21.6953 48.5859 21.5761 48.6095C21.3437 48.6315 21.1096 48.5936 20.8961 48.4995C20.9468 48.7283 20.9468 48.9656 20.8961 49.1945C20.6361 49.9895 18.5861 49.8845 17.2711 49.6195C16.834 49.547 16.4179 49.3803 16.0518 49.1307C15.6856 48.8812 15.3783 48.5548 15.1511 48.1745C14.5311 48.7145 14.2611 48.7145 14.1511 48.7145C13.9411 48.7145 13.5961 48.7145 12.7711 47.1345C12.2961 47.1695 11.4411 47.2195 11.1161 47.1995C10.913 47.1676 10.7236 47.0773 10.5709 46.9397C10.4183 46.8021 10.3089 46.6231 10.2561 46.4245C9.96779 46.4438 9.67821 46.4219 9.39609 46.3595C9.29884 46.3383 9.20472 46.3047 9.11609 46.2595C9.78109 47.8945 10.6161 49.4145 10.9661 50.2045C11.3683 51.0611 11.9482 51.8225 12.6671 52.438C13.3861 53.0534 14.2277 53.509 15.1361 53.7745C17.8411 54.4945 25.1361 54.6595 27.6361 54.5795C29.0156 54.5369 30.3739 54.2279 31.6361 53.6695C32.6419 53.2971 33.696 53.0714 34.7661 52.9995C36.0911 52.8995 39.6261 52.9045 40.4261 52.8745C42.2311 52.8045 44.0661 50.0295 45.2661 47.8395C46.0922 46.5116 46.4692 44.9531 46.3411 43.3945C46.2611 42.1295 46.1611 37.8495 46.5911 36.9795C47.0475 36.1628 47.587 35.3954 48.2011 34.6895Z" fill="black"></path><path d="M9.40452 42.3403C9.25705 43.1855 9.18842 44.0425 9.19952 44.9003C9.22452 45.0103 9.32452 45.4003 9.59952 45.4653C9.76398 45.499 9.9317 45.5141 10.0995 45.5103C9.97046 44.5389 9.95033 43.5562 10.0395 42.5803C9.79952 42.5003 9.59952 42.4253 9.40452 42.3403Z" fill="black"></path><path d="M8.20187 41.6748C8.14012 42.5058 8.22129 43.3412 8.44187 44.1448C8.48053 43.4248 8.56739 42.7082 8.70187 41.9998L8.20187 41.6748Z" fill="black"></path><path d="M22.2451 41.7798C21.7678 41.7816 21.3042 41.9396 20.9251 42.2298C20.3951 44.0198 21.1051 46.9198 21.2501 47.4848C21.7034 46.9548 22.1115 46.3878 22.4701 45.7898C22.9523 44.7544 23.3147 43.6674 23.5501 42.5498L23.4352 42.4498C23.1294 42.0937 22.7081 41.8566 22.2451 41.7798Z" fill="black"></path><path d="M25.6568 45.1443C25.7341 45.0657 25.7878 44.9669 25.8118 44.8593L26.2668 42.5393C26.1168 41.9893 24.7268 42.2143 24.5618 42.2993C24.3717 43.2514 24.1195 44.1901 23.8068 45.1093C24.418 45.2166 25.0421 45.2284 25.6568 45.1443Z" fill="black"></path><path d="M23.2369 46.33C23.0498 46.7554 22.9155 47.202 22.8369 47.66C22.7969 48.625 22.9069 49.105 23.6469 49.16C25.6769 49.285 25.8369 46.07 25.8369 46.07C25.5663 46.1316 25.2893 46.1601 25.0119 46.155C24.4821 46.1432 23.9539 46.0914 23.4319 46C23.3738 46.1139 23.3086 46.2241 23.2369 46.33Z" fill="black"></path><path d="M20.0346 41.5C19.2996 41.79 15.8546 47.535 15.8546 47.535C16.0024 47.8437 16.2238 48.1114 16.4993 48.3145C16.7748 48.5177 17.096 48.65 17.4346 48.7C18.2675 48.9069 19.1347 48.9359 19.9796 48.785C20.5696 46.665 19.3846 45.065 20.0346 41.5Z" fill="black"></path><path d="M13.1302 43.5903C13.0683 44.5736 13.1869 45.5598 13.4802 46.5003C13.6612 46.9421 13.9036 47.3562 14.2002 47.7303C15.2352 47.1803 16.9202 44.2003 16.9202 44.2003C15.683 44.1943 14.4533 44.0073 13.2702 43.6453L13.1302 43.5903Z" fill="black"></path><path d="M11.8905 43.1999L10.8905 42.8999C10.8429 43.8838 10.8898 44.87 11.0305 45.8449C11.0567 46.0008 11.1127 46.1502 11.1955 46.2849C11.4255 46.2849 11.9505 46.2849 12.4355 46.2399C12.1962 45.2794 12.1218 44.2853 12.2155 43.2999L11.8905 43.1999Z" fill="black"></path><path d="M8.5899 40.8102C8.94017 41.0406 9.31191 41.2365 9.6999 41.3952C9.6999 41.3952 10.6049 39.9452 11.0999 39.1252C11.0497 39.0578 10.9909 38.9973 10.9249 38.9452C10.4849 38.6872 9.9795 38.5621 9.4699 38.5852C9.05586 39.2733 8.75852 40.0251 8.5899 40.8102Z" fill="black"></path><path d="M11.9444 39.4992C11.5344 40.1842 10.7744 41.4042 10.5494 41.7642C10.8844 41.8842 11.2244 41.9942 11.5494 42.0992C11.9889 41.1381 12.5574 40.2414 13.2394 39.4342C13.1916 39.3915 13.1354 39.3591 13.0744 39.3392C12.6903 39.2976 12.3019 39.3526 11.9444 39.4992Z" fill="black"></path><path d="M15.2013 39.8499C14.9927 39.7855 14.7715 39.7733 14.557 39.8142C14.3426 39.8552 14.1415 39.9482 13.9713 40.0849C13.3583 40.7735 12.8526 41.5505 12.4713 42.3899C12.8913 42.5149 13.8663 42.8499 13.9713 42.8899L15.7313 40.2999C15.8213 40.1749 15.2963 39.8799 15.2013 39.8499Z" fill="black"></path><path d="M17.3063 40.0947C16.8863 40.2797 14.9713 43.0947 14.9713 43.0947C15.8213 43.2119 16.6783 43.272 17.5363 43.2747L18.5363 41.7747C18.7413 41.4847 18.4363 40.5897 18.3013 40.4697C18.0087 40.2588 17.6654 40.1293 17.3063 40.0947Z" fill="black"></path><path d="M31.8914 41.9197L31.9264 43.5897C32.3664 43.5097 32.7814 43.4447 33.1364 43.4097C33.1964 42.7997 33.2464 42.1497 33.2414 41.8347C32.7897 41.8191 32.3375 41.8476 31.8914 41.9197Z" fill="black"></path><path d="M38.7566 42.0349C39.6216 41.8849 40.4366 41.7399 40.7566 41.6349C41.027 41.555 41.2694 41.4005 41.456 41.1891C41.6426 40.9778 41.7659 40.7181 41.8116 40.4399C41.8384 40.2746 41.8501 40.1073 41.8466 39.9399C41.848 39.2772 41.9682 38.6201 42.2016 37.9999C42.5716 36.9249 44.1716 34.2699 44.8366 33.1949C44.0681 32.8418 43.2475 32.6155 42.4066 32.5249C41.3641 32.6373 40.3907 33.101 39.6466 33.8399C39.6162 33.913 39.5911 33.9882 39.5716 34.0649C39.4049 34.681 39.0909 35.2472 38.6566 35.7149C38.3077 36.0641 37.9259 36.3789 37.5166 36.6549C36.6816 37.2549 36.1666 37.6549 36.1666 38.4499C36.1666 38.8349 36.1966 39.6149 36.2216 40.4199C36.2566 41.4199 36.2766 42.0749 36.2816 42.5099C36.7866 42.3899 37.5816 42.2449 38.7566 42.0349Z" fill="black"></path><path d="M26.5862 47.6497C26.6312 47.7097 26.8512 48.4347 27.4612 48.4597C28.8362 48.5847 28.4612 45.2397 28.4612 45.2397C28.1962 45.2397 27.5562 45.3047 26.8712 45.3597L26.5862 47.6497Z" fill="black"></path><path d="M18.1999 27.5497C18.0249 27.6397 17.7649 28.1847 17.5149 30.2897C17.4032 31.0886 17.1705 31.8658 16.8249 32.5947C16.6996 32.8632 16.5943 33.1406 16.5099 33.4247C16.4175 33.7561 16.4481 34.1098 16.596 34.4204C16.744 34.731 16.9993 34.9777 17.3149 35.1147C17.5899 35.2537 17.9052 35.2909 18.2049 35.2197C17.6149 34.9247 17.7349 34.2997 17.8849 33.5797C17.9249 33.3797 17.9749 33.1447 18.0249 32.8697C18.0873 32.4296 18.2369 32.0063 18.4649 31.6247C18.5899 31.4047 18.6399 31.3147 18.5699 30.8097C18.4914 29.7862 18.7476 28.7649 19.2999 27.8997C19.3599 27.7797 19.4199 27.6697 19.4749 27.5547C19.521 27.4694 19.58 27.3918 19.6499 27.3247C19.1551 27.266 18.6537 27.3438 18.1999 27.5497Z" fill="black"></path><path d="M57.2398 18.9652C57.2383 18.6096 57.1571 18.2588 57.0022 17.9386C56.8473 17.6185 56.6227 17.3371 56.3448 17.1152C55.8748 16.7702 52.8098 14.1502 52.2748 13.2102C50.9898 10.9652 48.1898 9.71021 45.7748 9.44521C43.277 9.30901 40.772 9.47691 38.3148 9.94521C36.9375 10.4811 35.6161 11.151 34.3698 11.9452L34.2448 12.0102C36.0648 12.0102 37.8198 12.2252 39.0698 12.9502C40.6948 13.8902 42.2548 15.3602 42.6848 19.7202C42.8041 21.3121 42.7874 22.9112 42.6348 24.5002C42.5098 26.3702 42.4098 27.8502 43.0248 28.6102C43.2448 28.8802 44.0248 29.1502 44.9148 29.4602C47.1154 30.1466 49.1954 31.1723 51.0798 32.5002C51.3698 32.4002 51.6798 32.3152 52.0798 32.2202C53.2798 31.9152 54.8798 29.4602 55.3398 27.9702C55.5298 27.3302 55.6998 25.4702 55.9148 24.6852C56.1798 23.7452 56.7148 22.4102 56.8398 21.9952C57.1038 21.0068 57.2382 19.9883 57.2398 18.9652Z" fill="black"></path><path d="M44.6115 30.3548C43.4515 29.9548 42.6865 29.6898 42.3015 29.2098C41.4515 28.1648 41.5616 26.5248 41.7015 24.4448C41.8446 22.9036 41.8563 21.353 41.7365 19.8098C41.3715 16.0898 40.2365 14.6998 38.5865 13.7598C36.8515 12.7598 33.8766 12.8548 31.2716 13.1148C30.368 13.4061 29.4361 13.6005 28.4916 13.6948C27.4566 13.6948 25.8416 12.9198 25.2616 12.5498C24.7051 12.1451 24.0556 11.8872 23.3731 11.7998C22.6906 11.7124 21.997 11.7984 21.3566 12.0498C20.6966 12.2748 19.8116 12.6748 19.5216 13.2498C18.887 14.7292 18.4029 16.2686 18.0766 17.8448C18.0026 18.6483 17.8348 19.4404 17.5766 20.2048C17.3616 20.7898 16.4566 23.5848 16.2066 24.0248C15.9566 24.4648 15.2016 25.4498 14.3066 26.8148C13.9479 27.3924 13.7494 28.0551 13.7316 28.7348C13.7866 29.3398 14.8316 30.5098 14.6966 32.1248C14.5966 33.2548 13.2466 34.1248 11.7416 35.6248C11.1049 36.2551 10.5321 36.9468 10.0316 37.6898C10.5687 37.7491 11.0834 37.9378 11.5316 38.2398C11.6544 38.3418 11.7652 38.4575 11.8616 38.5848C12.3536 38.407 12.8863 38.374 13.3966 38.4898C13.7151 38.587 13.985 38.8014 14.1516 39.0898C14.524 38.9928 14.9067 38.9408 15.2916 38.9348C15.7298 39.0367 16.1208 39.2833 16.4016 39.6348C16.6075 39.4386 16.853 39.2886 17.1216 39.1948C17.5566 39.0948 18.4266 39.4948 18.7816 39.6948C18.8916 39.7448 19.1766 39.8898 19.4316 40.8498C19.5589 40.7039 19.7229 40.5945 19.9066 40.533C20.0902 40.4715 20.287 40.46 20.4766 40.4998C20.5766 40.5398 20.8316 40.6348 20.9466 41.1848C21.3743 40.9662 21.8517 40.8628 22.3316 40.8848C22.9345 40.9482 23.4975 41.2165 23.9266 41.6448C24.4831 41.3397 25.122 41.2189 25.7516 41.2998C26.1673 41.3424 26.5583 41.5177 26.8666 41.7998C27.1513 41.4886 27.5416 41.2943 27.9616 41.2548C28.1411 41.2379 28.3218 41.2699 28.4847 41.3474C28.6475 41.4248 28.7864 41.5449 28.8866 41.6948C28.982 41.5562 29.0927 41.4288 29.2166 41.3148C29.5016 41.0598 29.9816 41.0648 30.5966 41.0798C30.853 41.0956 31.1101 41.0956 31.3666 41.0798C33.1416 40.8348 33.9416 40.8298 34.1366 41.4198C34.2566 41.7748 33.7965 43.3798 34.1765 44.1448C34.6563 43.8618 35.0556 43.4607 35.3365 42.9798C35.3365 42.8148 35.3066 41.4798 35.2716 40.4798C35.2716 39.6598 35.2216 38.8698 35.2216 38.4798C35.2216 37.1748 36.1465 36.5098 36.9615 35.9248C37.3206 35.6844 37.6555 35.4098 37.9615 35.1048C38.2995 34.7408 38.5432 34.2996 38.6716 33.8198C38.7113 33.6671 38.7683 33.5195 38.8415 33.3798C39.7428 32.3705 40.9939 31.7414 42.3415 31.6198C43.7115 31.5048 48.2015 33.6198 48.9265 33.9798C49.0665 33.8448 49.2015 33.7148 49.3365 33.6048C49.5967 33.3791 49.8724 33.172 50.1615 32.9848C48.4459 31.849 46.5771 30.9634 44.6115 30.3548ZM20.8916 34.7998L20.7116 34.9148C19.3966 35.7448 18.6666 36.2048 17.9016 36.2048C17.5661 36.2026 17.2345 36.1329 16.9266 35.9998C16.4068 35.7737 15.9851 35.3692 15.7375 34.8594C15.49 34.3496 15.4329 33.7681 15.5766 33.2198C15.6724 32.8776 15.7944 32.5433 15.9416 32.2198C16.2517 31.5739 16.4608 30.8842 16.5616 30.1748C16.7916 28.1748 17.0616 27.0598 17.7566 26.7098C18.4966 26.3348 19.7966 26.0748 21.7566 26.9448C23.5516 27.7348 24.3416 28.4448 24.4766 29.3798C24.6116 30.3148 23.8966 32.8998 20.8916 34.7998ZM26.8316 17.0598L26.7816 17.5598C26.5466 19.7448 26.2816 22.4598 25.0566 23.2698C23.8316 24.0798 21.9866 24.2698 20.8966 24.2698H20.7016C19.1616 24.2248 18.3566 23.1748 18.3566 22.1598C18.3566 21.5048 18.7816 20.8348 19.2766 20.0598C19.591 19.5781 19.8749 19.0771 20.1266 18.5598C20.3412 18.0912 20.5184 17.6064 20.6566 17.1098C20.8196 16.4645 21.0828 15.8487 21.4366 15.2848C22.0116 14.3498 23.6116 13.6198 24.8016 14.0698L25.0316 14.1548C25.8316 14.4348 27.0766 14.8798 26.8316 17.0598ZM38.8316 21.0998C38.3766 22.3448 36.9715 25.0998 35.5366 25.7798C34.8104 26.0904 34.0262 26.2421 33.2366 26.2248C31.8363 26.2425 30.4597 25.8629 29.2666 25.1298C28.3866 24.5198 28.3866 23.0498 28.3916 21.6298V21.1298C28.4574 20.2574 28.6529 19.3996 28.9716 18.5848C29.0222 18.4726 29.1124 18.383 29.2249 18.3332C29.3375 18.2834 29.4645 18.2769 29.5816 18.3148C29.639 18.3374 29.6915 18.3712 29.7359 18.4141C29.7803 18.457 29.8159 18.5082 29.8405 18.5649C29.8651 18.6215 29.8783 18.6825 29.8793 18.7443C29.8804 18.806 29.8692 18.8674 29.8466 18.9248C29.575 19.6303 29.4066 20.3713 29.3466 21.1248V21.6248C29.3466 22.6248 29.3466 24.0198 29.8466 24.3498C30.2189 24.592 30.6227 24.7821 31.0466 24.9148C30.7844 23.6393 30.6953 22.3342 30.7816 21.0348C30.9066 20.0348 32.8116 16.7248 33.9666 15.5348C33.1111 15.6794 32.3012 16.0218 31.6016 16.5348C31.5022 16.6011 31.3814 16.6271 31.2636 16.6076C31.1458 16.588 31.0399 16.5243 30.9673 16.4295C30.8948 16.3347 30.861 16.2158 30.873 16.097C30.8849 15.9782 30.9416 15.8683 31.0316 15.7898C31.6516 15.3198 33.0316 14.5748 34.1166 14.5748C34.843 14.5921 35.5557 14.7761 36.1998 15.1124C36.844 15.4488 37.4022 15.9286 37.8316 16.5148C38.9766 18.0798 39.3515 19.7048 38.8365 21.0998H38.8316Z" fill="black"></path><path d="M22.2014 15.7648C21.8918 16.2566 21.6638 16.7952 21.5264 17.3598C21.3769 17.9032 21.1829 18.4333 20.9464 18.9448C20.6773 19.4905 20.3734 20.0183 20.0364 20.5248C19.6671 20.9962 19.4044 21.5421 19.2664 22.1248C19.2664 22.7898 19.8564 23.2748 20.7014 23.2948H20.8964C20.7645 22.5242 20.8387 21.7325 21.1114 20.9998C21.3861 20.2557 21.7522 19.5486 22.2014 18.8948C22.5887 18.3054 22.9233 17.683 23.2014 17.0348C23.3681 16.537 23.4788 16.0221 23.5314 15.4998C23.5614 15.2648 23.5864 15.0748 23.6164 14.9048C23.0541 15.0054 22.5496 15.312 22.2014 15.7648Z" fill="black"></path><path d="M28.4863 42.6048C28.4863 42.4098 28.1263 42.1948 27.9863 42.1848C27.8463 42.1748 27.2263 42.4398 27.1813 42.6848L26.9713 44.4098L28.4713 44.2998L28.4863 42.6048Z" fill="black"></path><path d="M29.3771 46.9397C29.4944 47.0496 29.6371 47.1285 29.7925 47.1695C29.9478 47.2106 30.1109 47.2123 30.2671 47.1747C30.6271 47.0697 30.9271 46.2697 31.0271 45.7397V44.7397C30.4971 44.8497 29.9871 44.9647 29.5771 45.0547L29.4171 45.0897L29.3771 46.9397Z" fill="black"></path><path d="M30.9544 41.9998C30.9544 41.8948 30.1544 41.8598 29.7744 42.0298C29.6791 42.0774 29.5971 42.148 29.536 42.2353C29.4749 42.3227 29.4365 42.4239 29.4244 42.5298V44.0948L31.0094 43.7548L30.9544 41.9998Z" fill="black"></path><path d="M33.2301 44.3403C32.8601 44.3803 32.4101 44.4503 31.9401 44.5403L31.9651 45.6453C32.1251 45.8903 32.4651 46.3103 32.8351 46.2353C33.3151 46.1353 33.7001 44.8803 33.2301 44.3403Z" fill="black"></path></svg>