<svg xmlns="http://www.w3.org/2000/svg" width="65" height="64" viewBox="0 0 65 64" fill="none"><path d="M37.4207 40.8098C37.1653 40.1685 36.9971 39.4958 36.9207 38.8098C36.2523 39.5183 35.4441 40.0806 34.5474 40.461C33.6506 40.8413 32.6847 41.0316 31.7107 41.0198C27.9957 41.0198 25.0457 38.9848 25.0457 35.3098C25.0457 30.1248 30.3457 29.1448 33.7557 29.1448H36.6407V27.8098C36.6407 26.2448 35.2707 24.8548 33.2907 24.8548C31.6407 24.8548 30.1557 25.8148 30.1557 27.1648H25.4057C25.355 26.16 25.6733 25.1713 26.3007 24.3848C27.0568 23.3759 28.0755 22.5941 29.2457 22.1248C30.6017 21.5629 32.0581 21.2839 33.5257 21.3048C35.9257 21.3048 37.8291 21.9081 39.2357 23.1148C39.9513 23.6829 40.5213 24.4131 40.8986 25.2452C41.276 26.0773 41.4498 26.9872 41.4057 27.8998V36.3348C41.3785 37.8895 41.7105 39.4294 42.3757 40.8348L37.4207 40.8098ZM32.6707 37.3948C34.2707 37.3948 36.2007 36.2748 36.6707 35.3248V31.9998H34.2557C31.6557 31.9998 29.8807 33.1348 29.8807 34.9398C29.8807 36.8498 31.3007 37.3948 32.6707 37.3948Z" fill="black"></path><path d="M32.8001 58.145C27.6291 58.145 22.5742 56.6116 18.2747 53.7388C13.9752 50.8659 10.6241 46.7826 8.64527 42.0052C6.66642 37.2279 6.14866 31.971 7.15747 26.8994C8.16628 21.8277 10.6564 17.1691 14.3128 13.5127C17.9692 9.85624 22.6278 7.36617 27.6995 6.35736C32.7711 5.34855 38.028 5.86631 42.8054 7.84516C47.5827 9.82401 51.666 13.1751 54.5389 17.4746C57.4117 21.7741 58.9451 26.829 58.9451 32C58.9385 38.932 56.1818 45.5783 51.2801 50.48C46.3784 55.3817 39.7321 58.1384 32.8001 58.145ZM32.8001 9.77999C28.4054 9.77999 24.1094 11.0832 20.4553 13.5247C16.8013 15.9663 13.9533 19.4366 12.2715 23.4968C10.5897 27.5569 10.1497 32.0246 11.0071 36.3349C11.8644 40.6451 13.9807 44.6044 17.0882 47.7119C20.1957 50.8194 24.1549 52.9357 28.4652 53.793C32.7754 54.6504 37.2431 54.2104 41.3033 52.5286C45.3635 50.8468 48.8338 47.9988 51.2753 44.3448C53.7169 40.6907 55.0201 36.3947 55.0201 32C55.0148 26.1085 52.6721 20.4598 48.5062 16.2939C44.3402 12.128 38.6916 9.78529 32.8001 9.77999Z" fill="black"></path></svg>