<svg xmlns="http://www.w3.org/2000/svg" width="65" height="64" viewBox="0 0 65 64" fill="none"><path d="M26.8814 24.8248C28.8814 25.8898 29.2864 27.1898 28.6314 28.2098C28.0728 29.0361 27.3994 29.7785 26.6314 30.4148C26.3264 30.6448 25.8214 30.6948 25.6314 30.3648C25.1714 29.5998 23.8314 28.4798 23.0514 27.8648C22.8966 27.7407 22.7016 27.6778 22.5034 27.6879C22.3053 27.6981 22.1177 27.7806 21.9764 27.9198C20.4764 29.3798 16.1114 33.6448 15.1064 34.3798C14.6864 34.6948 13.7714 35.1898 13.3714 34.2848C12.7714 32.9248 13.1264 31.1698 13.7414 30.4748C14.2414 29.9248 17.8114 26.8698 19.2714 25.6298C19.3374 25.5749 19.3881 25.504 19.4187 25.4239C19.4494 25.3437 19.4589 25.2571 19.4463 25.1722C19.4338 25.0873 19.3996 25.0071 19.3471 24.9392C19.2945 24.8714 19.2254 24.8182 19.1464 24.7848C17.7564 24.1798 14.8514 22.9398 14.2964 22.8748C13.5564 22.7948 12.4214 22.6598 11.9914 24.3748C10.9914 28.3748 11.2414 35.4698 12.9614 40.9348C13.4214 42.3998 14.4614 44.5848 16.2614 43.5148C23.4914 39.2348 40.4914 22.7698 42.4564 20.7198C44.4214 18.6698 49.5764 13.5998 50.8014 12.8998C52.0264 12.1998 54.3964 12.2498 55.3914 14.0498C59.2414 21.0148 58.8314 43.1248 58.1064 46.2348C57.7314 47.8348 56.2264 48.7698 54.1514 48.3098C49.6514 47.3098 40.7764 40.8398 36.4614 38.2398C36.2707 38.1235 36.1084 37.9661 35.9863 37.7791C35.8642 37.592 35.7855 37.3801 35.7557 37.1587C35.726 36.9373 35.7461 36.7121 35.8146 36.4995C35.883 36.2869 35.9981 36.0923 36.1514 35.9298L37.7014 34.2998C37.824 34.1695 37.9891 34.0873 38.167 34.068C38.3449 34.0488 38.5238 34.0937 38.6714 34.1948C40.7614 35.6248 48.3864 40.8148 49.3714 41.1948C50.5064 41.6498 51.9514 41.5198 52.4014 39.3098C52.8214 37.2398 53.1114 24.2848 50.4014 20.8748C49.3714 19.5848 46.3464 20.2198 42.3314 24.6448C40.0264 27.1848 18.0114 49.2548 13.1564 51.1448C11.1564 51.9298 9.34639 51.4548 8.36639 48.8148C4.8664 39.4198 5.75639 20.1248 6.55139 17.1698C7.34639 14.2148 9.64639 15.1698 11.8464 16.3898" fill="black"></path></svg>