<svg xmlns="http://www.w3.org/2000/svg" width="65" height="64" viewBox="0 0 65 64" fill="none"><path d="M44.1497 31.9996C52.1997 26.4296 58.0147 20.7796 56.4697 18.1046C55.4697 16.3846 51.8997 16.6846 47.1197 18.2296C46.786 17.9021 46.3662 17.676 45.9091 17.5777C45.452 17.4794 44.9764 17.5128 44.5376 17.6741C44.0987 17.8354 43.7147 18.1179 43.43 18.4889C43.1454 18.8598 42.9719 19.3039 42.9297 19.7696C41.4297 20.3796 39.8747 21.0696 38.2747 21.8246C37.4747 12.0646 35.4897 4.20459 32.3997 4.20459C29.3097 4.20459 27.3247 12.0646 26.5247 21.8246C17.6747 17.6396 9.87474 15.4246 8.32974 18.1046C7.39974 19.7396 9.19474 22.4996 12.5797 25.6446C12.4588 25.9501 12.3977 26.276 12.3997 26.6046C12.3991 26.953 12.4671 27.2982 12.6 27.6202C12.7329 27.9423 12.928 28.2351 13.1741 28.4817C13.4203 28.7283 13.7126 28.9239 14.0345 29.0574C14.3563 29.1909 14.7013 29.2596 15.0497 29.2596C15.5259 29.258 15.9926 29.1266 16.3997 28.8796C17.7197 29.9096 19.1447 30.9546 20.6547 31.9996C12.5997 37.5696 6.78474 43.2196 8.32974 45.8946C8.79474 46.6996 9.82974 47.0646 11.2797 47.0646C14.6597 47.0646 20.3347 45.0996 26.5247 42.1746C26.6797 44.0996 26.8847 45.9496 27.1347 47.6746C26.6917 47.9591 26.3434 48.3691 26.1343 48.8523C25.9253 49.3356 25.8649 49.8701 25.9609 50.3878C26.057 50.9055 26.305 51.3829 26.6735 51.759C27.042 52.1351 27.5141 52.393 28.0297 52.4996C29.0747 56.9146 30.5297 59.7846 32.3997 59.7846C35.4897 59.7846 37.4747 51.9196 38.2747 42.1646C44.4647 45.0896 50.1397 47.0546 53.5197 47.0546C54.9747 47.0546 56.0197 46.6896 56.4697 45.8846C58.0147 43.2196 52.1997 37.5696 44.1497 31.9996ZM43.1497 21.0646C43.3954 21.572 43.8055 21.9815 44.3132 22.2266C44.821 22.4717 45.3967 22.5379 45.9468 22.4146C46.497 22.2912 46.9893 21.9855 47.3438 21.5471C47.6983 21.1087 47.8942 20.5634 47.8997 19.9996C47.8962 19.7847 47.8642 19.5712 47.8047 19.3646C50.3547 18.5596 52.3547 18.1696 53.6697 18.1696C54.5947 18.1696 55.1697 18.3596 55.3947 18.7246C56.2147 20.1546 51.8947 25.1496 43.0497 31.2246C41.6297 30.2696 40.1547 29.3196 38.6497 28.3946C38.5997 26.6246 38.5147 24.8946 38.3997 23.1696C40.0647 22.3746 41.6647 21.6696 43.1447 21.0646H43.1497ZM34.8997 36.3396C34.0497 36.8296 33.2164 37.2996 32.3997 37.7496C31.5797 37.2996 30.7464 36.8296 29.8997 36.3396C29.0531 35.8496 28.2197 35.3613 27.3997 34.8746C27.3997 33.9396 27.3997 32.9996 27.3997 31.9996C27.3997 30.9996 27.3997 30.0596 27.4297 29.1246C28.2297 28.6413 29.0631 28.1529 29.9297 27.6596C30.7797 27.1596 31.6147 26.7046 32.4297 26.2546C33.2497 26.7046 34.0847 27.1696 34.9297 27.6596C35.7747 28.1496 36.6047 28.6596 37.4047 29.1246C37.3997 30.0596 37.3997 30.9996 37.3997 31.9996C37.3997 32.9996 37.3997 33.9396 37.3697 34.8746C36.5764 35.3613 35.7531 35.8496 34.8997 36.3396ZM37.3347 36.3746C37.2897 37.7146 37.2247 38.9946 37.1447 40.2246C36.0347 39.6796 34.8947 39.0946 33.7147 38.4646C34.3247 38.1296 34.9297 37.7846 35.5347 37.4346C36.1397 37.0846 36.7397 36.7346 37.3397 36.3746H37.3347ZM31.0797 38.4646C29.8997 39.0946 28.7564 39.6813 27.6497 40.2246C27.5697 38.9946 27.5047 37.7246 27.4597 36.3746C28.0597 36.7346 28.6597 37.0896 29.2597 37.4346C29.8597 37.7796 30.4697 38.1296 31.0797 38.4646ZM26.1397 34.0896C25.0047 33.3846 23.9297 32.6846 22.8997 31.9996C23.9247 31.3146 24.9997 30.6146 26.1347 29.9096C26.1347 30.6046 26.1347 31.3046 26.1347 31.9996C26.1347 32.6946 26.1297 33.3946 26.1397 34.0896ZM27.4597 27.6246C27.5064 26.2913 27.5697 25.0096 27.6497 23.7796C28.7597 24.3246 29.8997 24.9046 31.0747 25.5346C30.4697 25.8746 29.8647 26.2146 29.2597 26.5646C28.6547 26.9146 28.0597 27.2646 27.4597 27.6246ZM33.7247 25.5346C34.8997 24.9046 36.0397 24.3246 37.1497 23.7796C37.2297 25.0096 37.2931 26.2913 37.3397 27.6246C36.7397 27.2646 36.1397 26.9096 35.5397 26.5646C34.9397 26.2196 34.3297 25.8746 33.7247 25.5346ZM38.6597 29.9096C39.7947 30.6146 40.8697 31.3146 41.8997 31.9996C40.8997 32.6846 39.7997 33.3846 38.6647 34.0896C38.6647 33.3946 38.6647 32.6946 38.6647 31.9996C38.6647 31.3046 38.6697 30.6046 38.6597 29.9096ZM32.3997 5.49959C34.0447 5.49959 36.2047 11.7546 37.0497 22.4346C35.5147 23.1846 33.9547 23.9896 32.3997 24.8346C30.8447 23.9896 29.2847 23.1846 27.7497 22.4346C28.5947 11.7296 30.7547 5.49959 32.3997 5.49959ZM17.3147 27.9996C17.6446 27.4627 17.7716 26.8256 17.6727 26.2032C17.5739 25.5809 17.2556 25.0145 16.7756 24.6063C16.2955 24.1981 15.6853 23.9751 15.0552 23.9775C14.4251 23.98 13.8166 24.2077 13.3397 24.6196C10.2847 21.7496 8.93474 19.6196 9.42474 18.7646C9.63974 18.3996 10.2247 18.2096 11.1497 18.2096C13.8047 18.2096 19.2447 19.7896 26.4197 23.2096C26.3047 24.9146 26.2197 26.6646 26.1697 28.4346C24.6697 29.3596 23.1697 30.3096 21.7697 31.2646C20.1297 30.1046 18.6397 28.9996 17.3147 27.9696V27.9996ZM9.42474 45.2646C8.60474 43.8346 12.9247 38.8396 21.7697 32.7646C23.1897 33.7196 24.6647 34.6696 26.1697 35.5946C26.2197 37.3646 26.3047 39.0946 26.4197 40.8196C16.7497 45.4296 10.2497 46.6896 9.42474 45.2646ZM32.4247 58.5246C31.4597 58.5246 30.3147 56.3696 29.3697 52.4396C29.9776 52.2544 30.4987 51.857 30.838 51.3198C31.1774 50.7826 31.3124 50.1413 31.2184 49.5129C31.1245 48.8844 30.8079 48.3106 30.3263 47.8961C29.8447 47.4816 29.2302 47.2539 28.5947 47.2546C28.5297 47.2546 28.4647 47.2546 28.3997 47.2546C28.1497 45.5346 27.9414 43.6379 27.7747 41.5646C29.3097 40.8146 30.8697 40.0146 32.4247 39.1696C33.9797 40.0146 35.5397 40.8146 37.0747 41.5646C36.2047 52.2646 34.0497 58.5246 32.3997 58.5246H32.4247ZM55.4247 45.2646C54.5997 46.6896 48.0997 45.4296 38.4247 40.8196C38.5397 39.1146 38.6247 37.3646 38.6747 35.5946C40.1747 34.6696 41.6747 33.7196 43.0747 32.7646C51.8547 38.8396 56.1947 43.8346 55.3997 45.2646H55.4247Z" fill="black"></path><path d="M32.4 35.0446C34.0818 35.0446 35.445 33.6813 35.445 31.9996C35.445 30.3179 34.0818 28.9546 32.4 28.9546C30.7183 28.9546 29.355 30.3179 29.355 31.9996C29.355 33.6813 30.7183 35.0446 32.4 35.0446Z" fill="black"></path></svg>