<svg xmlns="http://www.w3.org/2000/svg" width="65" height="64" viewBox="0 0 65 64" fill="none"><path d="M52.6752 29.1444C50.2402 25.8794 45.2802 25.7594 45.2802 25.7594C45.2802 25.7594 49.0202 21.7594 46.1752 16.1394C44.3502 12.5394 40.0202 10.3395 33.6752 12.0844L31.1752 3.93945L26.0402 5.49945L28.5402 13.6244L24.2802 14.9294L21.7802 6.79945L16.6352 8.38445L19.1352 16.5144L10.8452 19.0444L12.4002 24.1694L17.4302 22.6294L25.0302 47.4494L20.0002 48.9994L21.6652 54.4594L29.9402 51.9594L32.4402 60.0994L37.5752 58.4994L35.0752 50.3594L39.3352 49.0594L41.8352 57.1994L46.9802 55.6294L44.4802 47.4844L45.6702 47.1194C55.6602 43.8894 56.9002 34.7744 52.6752 29.1444ZM25.9602 20.0294C25.9602 20.0294 28.0602 19.3744 31.0452 18.4744C33.8952 17.6194 37.1002 18.6244 38.0452 21.4144C38.9902 24.2044 37.4002 27.3344 34.3052 28.3244C31.4702 29.2344 28.9952 29.9494 28.9952 29.9494L25.9602 20.0294ZM40.3452 42.7644C37.4252 43.7244 33.5452 44.8444 33.5452 44.8444L30.4002 34.5444C30.4002 34.5444 33.9002 33.5444 36.9402 32.5444C40.5902 31.3594 43.8102 32.2394 44.8402 35.4544C45.8702 38.6694 44.3002 41.4694 40.3452 42.7644Z" fill="black"></path></svg>