<svg xmlns="http://www.w3.org/2000/svg" width="65" height="64" viewBox="0 0 65 64" fill="none"><path d="M23.4678 41.8496L7.51282 51.0596C7.61181 51.0977 7.71676 51.118 7.82282 51.1196H57.7978C57.8982 51.1185 57.9977 51.1016 58.0928 51.0696L42.1028 41.8496H23.4678Z" fill="black"></path><path d="M32.1665 6.20508C32.0929 6.27263 32.0289 6.35003 31.9765 6.43508L7.00149 49.6951C6.95529 49.7762 6.92158 49.8639 6.90149 49.9551L22.9015 40.7351L32.1665 24.6401V6.20508Z" fill="black"></path><path d="M58.5937 49.6951L33.6187 6.43508C33.5696 6.3491 33.5072 6.27147 33.4337 6.20508V24.6401L42.7337 40.7551L58.6987 50.0001C58.683 49.8927 58.6474 49.7893 58.5937 49.6951Z" fill="black"></path></svg>