<svg xmlns="http://www.w3.org/2000/svg" width="64" height="64" viewBox="0 0 64 64" fill="none"><path d="M33.4191 45.5849C32.9871 45.8332 32.4975 45.9639 31.9991 45.9639C31.5008 45.9639 31.0112 45.8332 30.5791 45.5849L20.9441 39.9999C20.514 39.7504 20.1569 39.3923 19.9086 38.9615C19.6603 38.5307 19.5294 38.0422 19.5291 37.5449V26.4349C19.5329 25.9411 19.6654 25.4567 19.9135 25.0297C20.1617 24.6027 20.5169 24.2477 20.9441 23.9999L30.5791 18.4149C31.0112 18.1666 31.5008 18.036 31.9991 18.036C32.4975 18.036 32.9871 18.1666 33.4191 18.4149L38.7391 21.4999L26.9991 28.3649C26.7982 28.4779 26.6313 28.643 26.5161 28.8427C26.4008 29.0424 26.3414 29.2694 26.3441 29.4999V34.4999C26.3414 34.7305 26.4008 34.9575 26.5161 35.1572C26.6313 35.3569 26.7982 35.5219 26.9991 35.6349L31.3641 38.1349C31.5602 38.2481 31.7827 38.3077 32.0091 38.3077C32.2356 38.3077 32.458 38.2481 32.6541 38.1349L52.1541 26.8649C52.8304 26.4739 53.392 25.9118 53.7826 25.2352C54.1731 24.5586 54.3788 23.7912 54.3791 23.0099V21.9999C54.3795 21.1061 54.1444 20.228 53.6977 19.4538C53.2509 18.6797 52.6082 18.0368 51.8341 17.5899L34.5391 7.58993C33.7655 7.1427 32.8877 6.90723 31.9941 6.90723C31.1005 6.90723 30.2227 7.1427 29.4491 7.58993L12.1541 17.5899C11.381 18.0375 10.7393 18.6806 10.2934 19.4547C9.84757 20.2288 9.61329 21.1066 9.61414 21.9999V41.9999C9.6138 42.8937 9.84883 43.7719 10.2956 44.546C10.7423 45.3202 11.3851 45.963 12.1591 46.4099L29.4541 56.4099C30.2277 56.8571 31.1055 57.0926 31.9991 57.0926C32.8927 57.0926 33.7705 56.8571 34.5441 56.4099L51.8391 46.4099C52.6132 45.963 53.2559 45.3202 53.7027 44.546C54.1494 43.7719 54.3845 42.8937 54.3841 41.9999V33.4999L33.4191 45.5849Z" fill="black"></path></svg>