<svg xmlns="http://www.w3.org/2000/svg" width="41" height="50" viewBox="0 0 41 50" fill="none"><mask id="path-1-outside-1_65_954" maskUnits="userSpaceOnUse" x="6.83047" y="0" width="27" height="28" fill="black"><rect fill="white" x="6.83047" width="27" height="28"></rect><path fill-rule="evenodd" clip-rule="evenodd" d="M32.0931 13.6314C32.0932 13.6314 32.0932 13.6313 32.0932 13.6313C32.0932 10.5465 30.8678 7.58804 28.6865 5.40675C26.5052 3.22545 23.5467 2 20.4618 2C17.377 2 14.4185 3.22544 12.2372 5.40675C10.0559 7.58806 8.83047 10.5465 8.83047 13.6314V24.4057C8.83047 25.2171 9.48826 25.8749 10.2997 25.8749C11.1111 25.8749 11.7689 25.2171 11.7689 24.4057V13.6316C11.7689 13.6315 11.7688 13.6314 11.7687 13.6314C11.7686 13.6314 11.7686 13.6313 11.7686 13.6312C11.7686 11.3257 12.6845 9.11456 14.3148 7.48429C15.9451 5.85398 18.1562 4.93809 20.4618 4.93809C22.7675 4.93809 24.9786 5.85398 26.6089 7.48429C28.2392 9.11453 29.1551 11.3256 29.1551 13.6311C29.1551 13.6313 29.155 13.6314 29.1549 13.6314C29.1547 13.6314 29.1546 13.6315 29.1546 13.6317V24.4057C29.1546 25.2171 29.8124 25.8749 30.6238 25.8749C31.4352 25.8749 32.093 25.2171 32.093 24.4057V13.6315C32.093 13.6314 32.0931 13.6314 32.0931 13.6314Z"></path></mask><path fill-rule="evenodd" clip-rule="evenodd" d="M32.0931 13.6314C32.0932 13.6314 32.0932 13.6313 32.0932 13.6313C32.0932 10.5465 30.8678 7.58804 28.6865 5.40675C26.5052 3.22545 23.5467 2 20.4618 2C17.377 2 14.4185 3.22544 12.2372 5.40675C10.0559 7.58806 8.83047 10.5465 8.83047 13.6314V24.4057C8.83047 25.2171 9.48826 25.8749 10.2997 25.8749C11.1111 25.8749 11.7689 25.2171 11.7689 24.4057V13.6316C11.7689 13.6315 11.7688 13.6314 11.7687 13.6314C11.7686 13.6314 11.7686 13.6313 11.7686 13.6312C11.7686 11.3257 12.6845 9.11456 14.3148 7.48429C15.9451 5.85398 18.1562 4.93809 20.4618 4.93809C22.7675 4.93809 24.9786 5.85398 26.6089 7.48429C28.2392 9.11453 29.1551 11.3256 29.1551 13.6311C29.1551 13.6313 29.155 13.6314 29.1549 13.6314C29.1547 13.6314 29.1546 13.6315 29.1546 13.6317V24.4057C29.1546 25.2171 29.8124 25.8749 30.6238 25.8749C31.4352 25.8749 32.093 25.2171 32.093 24.4057V13.6315C32.093 13.6314 32.0931 13.6314 32.0931 13.6314Z" fill="#F5FED8"></path><path d="M28.6865 5.40675L27.8783 6.21487L28.6865 5.40675ZM12.2372 5.40675L13.0453 6.21487V6.21487L12.2372 5.40675ZM20.4618 4.93809V3.79523V4.93809ZM26.6089 7.48429L25.8008 8.29242L26.6089 7.48429ZM11.7686 13.6312L10.6257 13.6312L11.7686 13.6312ZM29.1551 13.6311L30.298 13.6311L29.1551 13.6311ZM32.0932 13.6313L33.2361 13.6313L32.0932 13.6313ZM27.8783 6.21487C29.8453 8.18183 30.9503 10.8496 30.9504 13.6313L33.2361 13.6313C33.2361 10.2434 31.8902 6.99424 29.4946 4.59863L27.8783 6.21487ZM20.4618 3.14286C23.2436 3.14286 25.9114 4.24789 27.8783 6.21487L29.4946 4.59863C27.099 2.203 23.8498 0.857143 20.4618 0.857143V3.14286ZM13.0453 6.21487C15.0123 4.24789 17.6801 3.14286 20.4618 3.14286V0.857143C17.0739 0.857143 13.8247 2.203 11.4291 4.59863L13.0453 6.21487ZM9.97332 13.6314C9.97332 10.8496 11.0784 8.18185 13.0453 6.21487L11.4291 4.59863C9.03346 6.99426 7.68761 10.2434 7.68761 13.6314H9.97332ZM9.97332 24.4057V13.6314H7.68761V24.4057H9.97332ZM10.6261 13.6316V24.4057H12.9118V13.6316H10.6261ZM13.5066 6.67617C11.6621 8.52076 10.6258 11.0225 10.6257 13.6312L12.9114 13.6312C12.9115 11.6288 13.7069 9.70836 15.1229 8.29241L13.5066 6.67617ZM20.4618 3.79523C17.8531 3.79523 15.3513 4.83153 13.5066 6.67617L15.1229 8.29241C16.5389 6.87643 18.4593 6.08094 20.4618 6.08094V3.79523ZM27.4171 6.67617C25.5724 4.83154 23.0706 3.79523 20.4618 3.79523V6.08094C22.4643 6.08094 24.3848 6.87643 25.8008 8.29242L27.4171 6.67617ZM30.298 13.6311C30.2979 11.0225 29.2616 8.52073 27.4171 6.67617L25.8008 8.29242C27.2167 9.70834 28.0122 11.6287 28.0123 13.6311L30.298 13.6311ZM30.2974 24.4057V13.6317H28.0117V24.4057H30.2974ZM30.9502 13.6315V24.4057H33.2359V13.6315H30.9502ZM30.6238 27.0178C32.0664 27.0178 33.2359 25.8483 33.2359 24.4057H30.9502C30.9502 24.586 30.8041 24.7321 30.6238 24.7321V27.0178ZM28.0117 24.4057C28.0117 25.8483 29.1812 27.0178 30.6238 27.0178V24.7321C30.4436 24.7321 30.2974 24.586 30.2974 24.4057H28.0117ZM29.1607 12.4885C28.5279 12.4853 28.0117 12.9972 28.0117 13.6317H30.2974C30.2974 14.2658 29.7815 14.7774 29.149 14.7742L29.1607 12.4885ZM11.7569 12.4886C12.3949 12.482 12.9114 12.9978 12.9114 13.6312L10.6257 13.6312C10.6257 14.2648 11.1424 14.7808 11.7806 14.7742L11.7569 12.4886ZM12.9118 13.6316C12.9118 12.9956 12.3928 12.482 11.7569 12.4886L11.7806 14.7742C11.1449 14.7808 10.6261 14.2673 10.6261 13.6316H12.9118ZM33.2359 13.6315C33.2359 14.2692 32.714 14.7835 32.0763 14.7741L32.1099 12.4886C31.4722 12.4793 30.9502 12.9937 30.9502 13.6315H33.2359ZM7.68761 24.4057C7.68761 25.8483 8.85708 27.0178 10.2997 27.0178V24.7321C10.1194 24.7321 9.97332 24.586 9.97332 24.4057H7.68761ZM10.2997 27.0178C11.7423 27.0178 12.9118 25.8483 12.9118 24.4057H10.6261C10.6261 24.586 10.4799 24.7321 10.2997 24.7321V27.0178ZM28.0123 13.6311C28.0123 12.9997 28.5255 12.4853 29.1607 12.4885L29.149 14.7742C29.7845 14.7775 30.298 14.2628 30.298 13.6311L28.0123 13.6311ZM30.9504 13.6313C30.9504 12.999 31.4669 12.4792 32.1099 12.4886L32.0763 14.7741C32.7195 14.7836 33.2361 14.2636 33.2361 13.6313L30.9504 13.6313Z" fill="#F5FED8" mask="url(#path-1-outside-1_65_954)"></path><path d="M0.666626 24.8569C0.666626 20.4387 4.24835 16.8569 8.66663 16.8569H32.2095C36.6278 16.8569 40.2095 20.4387 40.2095 24.8569V41.9998C40.2095 46.4181 36.6278 49.9998 32.2095 49.9998H8.66663C4.24835 49.9998 0.666626 46.4181 0.666626 41.9998V24.8569Z" fill="#C1FE00"></path><g filter="url(#filter0_b_65_954)"><path fill-rule="evenodd" clip-rule="evenodd" d="M32.2095 16.9712H8.66663C4.31147 16.9712 0.780912 20.5018 0.780912 24.8569V41.9998C0.780912 46.3549 4.31147 49.8855 8.66663 49.8855H32.2095C36.5646 49.8855 40.0952 46.3549 40.0952 41.9998V24.8569C40.0952 20.5018 36.5646 16.9712 32.2095 16.9712ZM8.66663 16.8569C4.24835 16.8569 0.666626 20.4387 0.666626 24.8569V41.9998C0.666626 46.4181 4.24835 49.9998 8.66663 49.9998H32.2095C36.6278 49.9998 40.2095 46.4181 40.2095 41.9998V24.8569C40.2095 20.4387 36.6278 16.8569 32.2095 16.8569H8.66663Z" fill="url(#paint0_linear_65_954)"></path><path fill-rule="evenodd" clip-rule="evenodd" d="M32.2095 16.9712H8.66663C4.31147 16.9712 0.780912 20.5018 0.780912 24.8569V41.9998C0.780912 46.3549 4.31147 49.8855 8.66663 49.8855H32.2095C36.5646 49.8855 40.0952 46.3549 40.0952 41.9998V24.8569C40.0952 20.5018 36.5646 16.9712 32.2095 16.9712ZM8.66663 16.8569C4.24835 16.8569 0.666626 20.4387 0.666626 24.8569V41.9998C0.666626 46.4181 4.24835 49.9998 8.66663 49.9998H32.2095C36.6278 49.9998 40.2095 46.4181 40.2095 41.9998V24.8569C40.2095 20.4387 36.6278 16.8569 32.2095 16.8569H8.66663Z" fill="url(#paint1_radial_65_954)"></path></g><circle cx="20.5523" cy="33.5428" r="3.42857" fill="black"></circle><defs><filter id="filter0_b_65_954" x="-6.19052" y="9.99979" width="53.2571" height="46.8574" filterUnits="userSpaceOnUse" color-interpolation-filters="sRGB"><feGaussianBlur stdDeviation="3.42857"></feGaussianBlur></filter><linearGradient id="paint0_linear_65_954" x1="6.3573" y1="15.6733" x2="39.8194" y2="38.9833" gradientUnits="userSpaceOnUse"><stop offset="0.188941" stop-color="#F1FFE7" stop-opacity="0.523483"></stop><stop offset="0.526042" stop-color="#8AFF88"></stop><stop offset="1" stop-color="#D5FFB4" stop-opacity="0.1"></stop></linearGradient><radialGradient id="paint1_radial_65_954" cx="0" cy="0" r="1" gradientUnits="userSpaceOnUse" gradientTransform="translate(6.57617 48.9148) rotate(-45.963) scale(28.1282 46.9858)"><stop stop-color="white"></stop><stop offset="1" stop-color="white" stop-opacity="0"></stop></radialGradient></defs></svg>