<svg xmlns="http://www.w3.org/2000/svg" width="52" height="48" viewBox="0 0 52 48" fill="none"><path d="M0.332916 6.15385C0.332916 2.75517 3.08809 0 6.48676 0H26.9175C30.3162 0 33.0714 2.75517 33.0714 6.15385V34.7077C33.0714 38.1064 30.3162 40.8615 26.9175 40.8615H6.48676C3.08809 40.8615 0.332916 38.1064 0.332916 34.7077V6.15385Z" fill="#F5FED8"></path><path fill-rule="evenodd" clip-rule="evenodd" d="M45.6157 38.5342C50.8673 31.6681 50.3533 21.8062 44.0737 15.5266C37.2342 8.68711 26.1452 8.68711 19.3058 15.5266C12.4663 22.366 12.4663 33.455 19.3058 40.2945C25.5854 46.5741 35.4473 47.0881 42.3133 41.8365L47.6066 47.1297C48.0872 47.6104 48.8665 47.6104 49.3471 47.1297L50.9089 45.5679C51.3896 45.0873 51.3896 44.308 50.9089 43.8274L45.6157 38.5342Z" fill="#C1FE00"></path><g filter="url(#filter0_b_65_933)"><path fill-rule="evenodd" clip-rule="evenodd" d="M45.4525 38.545L45.518 38.4594C50.7326 31.6417 50.2221 21.849 43.9866 15.6136C37.1952 8.8222 26.1842 8.8222 19.3928 15.6136C12.6014 22.405 12.6014 33.416 19.3928 40.2074C25.6282 46.4428 35.4208 46.9534 42.2386 41.7388L42.3242 41.6733L47.6936 47.0427C48.1262 47.4753 48.8275 47.4753 49.2601 47.0427L50.8219 45.4809C51.2545 45.0483 51.2545 44.347 50.8219 43.9144L45.4525 38.545ZM42.3133 41.8365C35.4473 47.0881 25.5854 46.5741 19.3058 40.2945C12.4663 33.455 12.4663 22.366 19.3058 15.5266C26.1452 8.68711 37.2342 8.68711 44.0737 15.5266C50.3533 21.8062 50.8673 31.6681 45.6157 38.5342L50.9089 43.8274C51.3896 44.308 51.3896 45.0873 50.9089 45.5679L49.3471 47.1297C48.8665 47.6104 48.0872 47.6104 47.6066 47.1297L42.3133 41.8365Z" fill="url(#paint0_linear_65_933)"></path><path fill-rule="evenodd" clip-rule="evenodd" d="M45.4525 38.545L45.518 38.4594C50.7326 31.6417 50.2221 21.849 43.9866 15.6136C37.1952 8.8222 26.1842 8.8222 19.3928 15.6136C12.6014 22.405 12.6014 33.416 19.3928 40.2074C25.6282 46.4428 35.4208 46.9534 42.2386 41.7388L42.3242 41.6733L47.6936 47.0427C48.1262 47.4753 48.8275 47.4753 49.2601 47.0427L50.8219 45.4809C51.2545 45.0483 51.2545 44.347 50.8219 43.9144L45.4525 38.545ZM42.3133 41.8365C35.4473 47.0881 25.5854 46.5741 19.3058 40.2945C12.4663 33.455 12.4663 22.366 19.3058 15.5266C26.1452 8.68711 37.2342 8.68711 44.0737 15.5266C50.3533 21.8062 50.8673 31.6681 45.6157 38.5342L50.9089 43.8274C51.3896 44.308 51.3896 45.0873 50.9089 45.5679L49.3471 47.1297C48.8665 47.6104 48.0872 47.6104 47.6066 47.1297L42.3133 41.8365Z" fill="url(#paint1_radial_65_933)"></path></g><defs><filter id="filter0_b_65_933" x="6.79156" y="3.01235" width="51.8625" height="51.8625" filterUnits="userSpaceOnUse" color-interpolation-filters="sRGB"><feGaussianBlur stdDeviation="3.69231"></feGaussianBlur></filter><linearGradient id="paint0_linear_65_933" x1="19.5143" y1="9.07221" x2="54.283" y2="29.3724" gradientUnits="userSpaceOnUse"><stop offset="0.188941" stop-color="#F1FFE7" stop-opacity="0.523483"></stop><stop offset="0.526042" stop-color="#8AFF88"></stop><stop offset="1" stop-color="#D5FFB4" stop-opacity="0.1"></stop></linearGradient><radialGradient id="paint1_radial_65_933" cx="0" cy="0" r="1" gradientUnits="userSpaceOnUse" gradientTransform="translate(19.7196 46.2759) rotate(-50.9773) scale(29.1304 47.6315)"><stop stop-color="white"></stop><stop offset="1" stop-color="white" stop-opacity="0"></stop></radialGradient></defs></svg>