<svg xmlns="http://www.w3.org/2000/svg" width="54" height="49" viewBox="0 0 54 49" fill="none"><path d="M11.7137 3.9834C11.7137 1.78343 13.4971 0 15.6971 0H49.2554C51.4553 0 53.2388 1.78343 53.2388 3.9834V23.4232C53.2388 25.6231 51.4553 27.4066 49.2554 27.4066H15.6971C13.4971 27.4066 11.7137 25.6231 11.7137 23.4232V3.9834Z" fill="#F5FED8"></path><path d="M1.68055 17.4785L17.1117 3.9834L33.2235 18.0737L47.6838 5.42763C48.3277 4.86447 49.3352 5.32179 49.3352 6.17726V33.0056C49.3352 33.5801 49.0871 34.1267 48.6547 34.5049L33.2235 48L17.1117 33.9097L2.65142 46.5558C2.00747 47.1189 1 46.6616 1 45.8061V18.9778C1 18.4033 1.24808 17.8567 1.68055 17.4785Z" fill="#C1FE00"></path><g filter="url(#filter0_b_65_904)"><path fill-rule="evenodd" clip-rule="evenodd" d="M17.1117 3.90088L33.2235 17.9912L47.6428 5.38094C48.327 4.78258 49.3974 5.26848 49.3974 6.17742V33.0058C49.3974 33.5982 49.1416 34.1619 48.6956 34.5519L33.2235 48.0828L17.1117 33.9925L2.69238 46.6028C2.00818 47.2011 0.937744 46.7152 0.937744 45.8063V18.9779C0.937744 18.3855 1.19358 17.8219 1.63956 17.4318L17.1117 3.90088ZM17.174 33.8816L33.1612 47.863V18.1021L17.174 4.12068V33.8816ZM17.0495 4.12068V33.8816L2.61044 46.5091C2.00673 47.037 1.06223 46.6083 1.06223 45.8063V18.9779C1.06223 18.4214 1.30256 17.8919 1.72151 17.5255L17.0495 4.12068ZM33.2857 18.1021V47.863L48.6137 34.4582C49.0326 34.0918 49.273 33.5623 49.273 33.0058V6.17742C49.273 5.37542 48.3285 4.94668 47.7247 5.47465L33.2857 18.1021Z" fill="url(#paint0_linear_65_904)"></path><path fill-rule="evenodd" clip-rule="evenodd" d="M17.1117 3.90088L33.2235 17.9912L47.6428 5.38094C48.327 4.78258 49.3974 5.26848 49.3974 6.17742V33.0058C49.3974 33.5982 49.1416 34.1619 48.6956 34.5519L33.2235 48.0828L17.1117 33.9925L2.69238 46.6028C2.00818 47.2011 0.937744 46.7152 0.937744 45.8063V18.9779C0.937744 18.3855 1.19358 17.8219 1.63956 17.4318L17.1117 3.90088ZM17.174 33.8816L33.1612 47.863V18.1021L17.174 4.12068V33.8816ZM17.0495 4.12068V33.8816L2.61044 46.5091C2.00673 47.037 1.06223 46.6083 1.06223 45.8063V18.9779C1.06223 18.4214 1.30256 17.8919 1.72151 17.5255L17.0495 4.12068ZM33.2857 18.1021V47.863L48.6137 34.4582C49.0326 34.0918 49.273 33.5623 49.273 33.0058V6.17742C49.273 5.37542 48.3285 4.94668 47.7247 5.47465L33.2857 18.1021Z" fill="url(#paint1_radial_65_904)"></path></g><rect x="36.6512" y="22.4458" width="11.7478" height="0.932367" rx="0.466184" transform="rotate(-41 36.6512 22.4458)" fill="black"></rect><rect x="36.7339" y="26.7046" width="11.7478" height="0.932367" rx="0.466184" transform="rotate(-41 36.7339 26.7046)" fill="black"></rect><defs><filter id="filter0_b_65_904" x="-6.53114" y="-3.568" width="63.3975" height="59.1199" filterUnits="userSpaceOnUse" color-interpolation-filters="sRGB"><feGaussianBlur stdDeviation="3.73444"></feGaussianBlur></filter><linearGradient id="paint0_linear_65_904" x1="7.91165" y1="2.32295" x2="51.1052" y2="29.9838" gradientUnits="userSpaceOnUse"><stop offset="0.188941" stop-color="#F1FFE7" stop-opacity="0.523483"></stop><stop offset="0.526042" stop-color="#8AFF88"></stop><stop offset="1" stop-color="#D5FFB4" stop-opacity="0.1"></stop></linearGradient><radialGradient id="paint1_radial_65_904" cx="0" cy="0" r="1" gradientUnits="userSpaceOnUse" gradientTransform="translate(8.17987 46.6364) rotate(-48.3659) scale(36.0666 59.8648)"><stop stop-color="white"></stop><stop offset="1" stop-color="white" stop-opacity="0"></stop></radialGradient></defs></svg>