<svg xmlns="http://www.w3.org/2000/svg" width="100" height="33" viewBox="0 0 100 33" fill="none"><mask id="mask0_65_800" style="mask-type:alpha" maskUnits="userSpaceOnUse" x="0" y="0" width="100" height="33"><path d="M1.35645 8.78848L14.7129 1.07715L28.0693 8.78848V24.2111L14.7129 31.9225L1.35645 24.2111V8.78848Z" stroke="url(#paint0_linear_65_800)"></path><path d="M3.08887 9.78847L14.7132 3.07715L26.3376 9.78847V23.2111L14.7132 29.9225L3.08887 23.2111V9.78847Z" stroke="url(#paint1_linear_65_800)"></path><path d="M4.82031 10.7885L14.7126 5.07715L24.6049 10.7885V22.2111L14.7126 27.9225L4.82031 22.2111V10.7885Z" stroke="url(#paint2_linear_65_800)"></path><path d="M6.55273 11.7885L14.713 7.07715L22.8732 11.7885V21.2111L14.713 25.9225L6.55273 21.2111V11.7885Z" stroke="url(#paint3_linear_65_800)"></path><path d="M8.28516 12.7885L14.7134 9.07715L21.1416 12.7885V20.2111L14.7134 23.9224L8.28516 20.2111V12.7885Z" stroke="url(#paint4_linear_65_800)"></path><path d="M14.7128 10.5L19.9089 13.5V19.5L14.7128 22.5L9.5166 19.5V13.5L14.7128 10.5Z" fill="url(#paint5_radial_65_800)"></path><path d="M41.0898 20.4213L40.0976 19.3581C39.6825 19.51 39.2066 19.6012 38.7003 19.6012C36.483 19.6012 35.0351 18.0115 35.0351 15.9258V15.8448C35.0351 13.7286 36.5538 12.1694 38.7003 12.1694C40.857 12.1694 42.3555 13.6983 42.3555 15.8144V15.8954C42.3555 17.0901 41.8897 18.1026 41.1 18.7709L41.8998 19.6315L41.0898 20.4213ZM38.7105 18.538C38.913 18.538 39.1053 18.5178 39.2775 18.4773L38.5687 17.7078L39.3888 16.9383L40.2798 17.9001C40.7051 17.4344 40.9481 16.7459 40.9481 15.8954V15.8144C40.9481 14.326 40.1178 13.2325 38.7003 13.2325C37.2727 13.2325 36.4323 14.2754 36.4323 15.8346V15.9156C36.4323 17.5356 37.4043 18.538 38.7105 18.538ZM46.4303 19.6012C44.6179 19.6012 43.5852 18.6089 43.5852 16.7459V12.2605H44.9419V16.6446C44.9419 17.971 45.3672 18.5178 46.4404 18.5178C47.4833 18.5178 48.0098 18.052 48.0098 16.5535V12.2605H49.3665V16.6649C49.3665 18.5583 48.3439 19.6012 46.4303 19.6012ZM50.0994 19.4999L52.5193 12.2605H54.2811L56.6706 19.4999H55.2733L54.6962 17.7078H51.932L51.365 19.4999H50.0994ZM53.3192 13.3641L52.2459 16.7256H54.3823L53.3192 13.3641ZM57.7754 19.4999V12.2605H59.3853L62.4329 17.4951V12.2605H63.6581V19.4999H62.2608L59.0006 13.9514V19.4999H57.7754ZM66.7676 19.4999V13.3236H64.7528V12.2605H70.1393V13.3236H68.1244V19.4999H66.7676ZM74.0071 19.6012C72.1947 19.6012 71.162 18.6089 71.162 16.7459V12.2605H72.5187V16.6446C72.5187 17.971 72.944 18.5178 74.0172 18.5178C75.0601 18.5178 75.5866 18.052 75.5866 16.5535V12.2605H76.9433V16.6649C76.9433 18.5583 75.9207 19.6012 74.0071 19.6012ZM78.5396 19.4999V12.2605H80.3419L82.2454 17.2015L84.1084 12.2605H85.8904V19.4999H84.5437V14.0324L82.3871 19.4999H81.9517L79.7546 14.0324V19.4999H78.5396ZM89.403 19.4999L91.8229 12.2605H93.5846L95.9741 19.4999H94.5769L93.9998 17.7078H91.2356L90.6686 19.4999H89.403ZM92.6228 13.3641L91.5495 16.7256H93.6859L92.6228 13.3641ZM97.1195 19.4999V12.2605H98.4763V19.4999H97.1195Z" fill="white"></path></mask><g mask="url(#mask0_65_800)"><rect x="-8" y="-9" width="111" height="60" fill="white"></rect><rect x="-8" y="-9" width="111" height="60" fill="white"></rect></g><defs><linearGradient id="paint0_linear_65_800" x1="9.46286" y1="0.499798" x2="21.4629" y2="32.4998" gradientUnits="userSpaceOnUse"><stop stop-color="white"></stop><stop offset="1" stop-color="white" stop-opacity="0"></stop></linearGradient><linearGradient id="paint1_linear_65_800" x1="10.1195" y1="2.4998" x2="20.6195" y2="30.4998" gradientUnits="userSpaceOnUse"><stop stop-color="white"></stop><stop offset="1" stop-color="white" stop-opacity="0"></stop></linearGradient><linearGradient id="paint2_linear_65_800" x1="10.7751" y1="4.4998" x2="19.7751" y2="28.4998" gradientUnits="userSpaceOnUse"><stop stop-color="white"></stop><stop offset="1" stop-color="white" stop-opacity="0"></stop></linearGradient><linearGradient id="paint3_linear_65_800" x1="11.4317" y1="6.4998" x2="18.9317" y2="26.4998" gradientUnits="userSpaceOnUse"><stop stop-color="white"></stop><stop offset="1" stop-color="white" stop-opacity="0"></stop></linearGradient><linearGradient id="paint4_linear_65_800" x1="12.0883" y1="8.4998" x2="18.0883" y2="24.4998" gradientUnits="userSpaceOnUse"><stop stop-color="white"></stop><stop offset="1" stop-color="white" stop-opacity="0"></stop></linearGradient><radialGradient id="paint5_radial_65_800" cx="0" cy="0" r="1" gradientUnits="userSpaceOnUse" gradientTransform="translate(14.7128 16.5) rotate(90) scale(6)"><stop stop-color="white" stop-opacity="0.9"></stop><stop offset="1" stop-color="white" stop-opacity="0"></stop></radialGradient></defs></svg>