<svg xmlns="http://www.w3.org/2000/svg" width="49" height="48" viewBox="0 0 49 48" fill="none"><path d="M12.3739 19.3171C12.3739 15.276 15.6499 12 19.691 12H29.3496C33.3907 12 36.6666 15.276 36.6666 19.3171V28.9756C36.6666 33.0167 33.3907 36.2927 29.3496 36.2927H19.691C15.6499 36.2927 12.3739 33.0167 12.3739 28.9756V19.3171Z" fill="#F5FED8"></path><path d="M0.666626 4.39024C0.666626 1.96558 2.63221 0 5.05687 0H18.2276C20.6523 0 22.6178 1.96558 22.6178 4.39024V17.561C22.6178 19.9856 20.6523 21.9512 18.2276 21.9512H5.05687C2.6322 21.9512 0.666626 19.9856 0.666626 17.561V4.39024Z" fill="#C1FE00"></path><g filter="url(#filter0_b_65_941)"><path fill-rule="evenodd" clip-rule="evenodd" d="M18.2276 0.146341H5.05687C2.71303 0.146341 0.812967 2.0464 0.812967 4.39024V17.561C0.812967 19.9048 2.71303 21.8049 5.05687 21.8049H18.2276C20.5714 21.8049 22.4715 19.9048 22.4715 17.561V4.39024C22.4715 2.0464 20.5714 0.146341 18.2276 0.146341ZM5.05687 0C2.63221 0 0.666626 1.96558 0.666626 4.39024V17.561C0.666626 19.9856 2.6322 21.9512 5.05687 21.9512H18.2276C20.6523 21.9512 22.6178 19.9856 22.6178 17.561V4.39024C22.6178 1.96558 20.6523 0 18.2276 0H5.05687Z" fill="url(#paint0_linear_65_941)"></path><path fill-rule="evenodd" clip-rule="evenodd" d="M18.2276 0.146341H5.05687C2.71303 0.146341 0.812967 2.0464 0.812967 4.39024V17.561C0.812967 19.9048 2.71303 21.8049 5.05687 21.8049H18.2276C20.5714 21.8049 22.4715 19.9048 22.4715 17.561V4.39024C22.4715 2.0464 20.5714 0.146341 18.2276 0.146341ZM5.05687 0C2.63221 0 0.666626 1.96558 0.666626 4.39024V17.561C0.666626 19.9856 2.6322 21.9512 5.05687 21.9512H18.2276C20.6523 21.9512 22.6178 19.9856 22.6178 17.561V4.39024C22.6178 1.96558 20.6523 0 18.2276 0H5.05687Z" fill="url(#paint1_radial_65_941)"></path></g><path d="M26.7154 4.39024C26.7154 1.96558 28.681 0 31.1056 0H44.2764C46.701 0 48.6666 1.96558 48.6666 4.39024V17.561C48.6666 19.9856 46.701 21.9512 44.2764 21.9512H31.1056C28.681 21.9512 26.7154 19.9856 26.7154 17.561V4.39024Z" fill="#C1FE00"></path><g filter="url(#filter1_b_65_941)"><path fill-rule="evenodd" clip-rule="evenodd" d="M44.2764 0.146341H31.1056C28.7618 0.146341 26.8617 2.0464 26.8617 4.39024V17.561C26.8617 19.9048 28.7618 21.8049 31.1056 21.8049H44.2764C46.6202 21.8049 48.5203 19.9048 48.5203 17.561V4.39024C48.5203 2.0464 46.6202 0.146341 44.2764 0.146341ZM31.1056 0C28.681 0 26.7154 1.96558 26.7154 4.39024V17.561C26.7154 19.9856 28.681 21.9512 31.1056 21.9512H44.2764C46.701 21.9512 48.6666 19.9856 48.6666 17.561V4.39024C48.6666 1.96558 46.701 0 44.2764 0H31.1056Z" fill="url(#paint2_linear_65_941)"></path><path fill-rule="evenodd" clip-rule="evenodd" d="M44.2764 0.146341H31.1056C28.7618 0.146341 26.8617 2.0464 26.8617 4.39024V17.561C26.8617 19.9048 28.7618 21.8049 31.1056 21.8049H44.2764C46.6202 21.8049 48.5203 19.9048 48.5203 17.561V4.39024C48.5203 2.0464 46.6202 0.146341 44.2764 0.146341ZM31.1056 0C28.681 0 26.7154 1.96558 26.7154 4.39024V17.561C26.7154 19.9856 28.681 21.9512 31.1056 21.9512H44.2764C46.701 21.9512 48.6666 19.9856 48.6666 17.561V4.39024C48.6666 1.96558 46.701 0 44.2764 0H31.1056Z" fill="url(#paint3_radial_65_941)"></path></g><path d="M26.7154 30.4391C26.7154 28.0144 28.681 26.0488 31.1056 26.0488H44.2764C46.701 26.0488 48.6666 28.0144 48.6666 30.4391V43.6098C48.6666 46.0345 46.701 48 44.2764 48H31.1056C28.681 48 26.7154 46.0345 26.7154 43.6098V30.4391Z" fill="#C1FE00"></path><g filter="url(#filter2_b_65_941)"><path fill-rule="evenodd" clip-rule="evenodd" d="M44.2764 26.1952H31.1056C28.7618 26.1952 26.8617 28.0952 26.8617 30.4391V43.6098C26.8617 45.9536 28.7618 47.8537 31.1056 47.8537H44.2764C46.6202 47.8537 48.5203 45.9536 48.5203 43.6098V30.4391C48.5203 28.0952 46.6202 26.1952 44.2764 26.1952ZM31.1056 26.0488C28.681 26.0488 26.7154 28.0144 26.7154 30.4391V43.6098C26.7154 46.0345 28.681 48 31.1056 48H44.2764C46.701 48 48.6666 46.0345 48.6666 43.6098V30.4391C48.6666 28.0144 46.701 26.0488 44.2764 26.0488H31.1056Z" fill="url(#paint4_linear_65_941)"></path><path fill-rule="evenodd" clip-rule="evenodd" d="M44.2764 26.1952H31.1056C28.7618 26.1952 26.8617 28.0952 26.8617 30.4391V43.6098C26.8617 45.9536 28.7618 47.8537 31.1056 47.8537H44.2764C46.6202 47.8537 48.5203 45.9536 48.5203 43.6098V30.4391C48.5203 28.0952 46.6202 26.1952 44.2764 26.1952ZM31.1056 26.0488C28.681 26.0488 26.7154 28.0144 26.7154 30.4391V43.6098C26.7154 46.0345 28.681 48 31.1056 48H44.2764C46.701 48 48.6666 46.0345 48.6666 43.6098V30.4391C48.6666 28.0144 46.701 26.0488 44.2764 26.0488H31.1056Z" fill="url(#paint5_radial_65_941)"></path></g><path d="M0.666626 30.4391C0.666626 28.0144 2.63221 26.0488 5.05687 26.0488H18.2276C20.6523 26.0488 22.6178 28.0144 22.6178 30.4391V43.6098C22.6178 46.0345 20.6523 48 18.2276 48H5.05687C2.6322 48 0.666626 46.0345 0.666626 43.6098V30.4391Z" fill="#C1FE00"></path><g filter="url(#filter3_b_65_941)"><path fill-rule="evenodd" clip-rule="evenodd" d="M18.2276 26.1952H5.05687C2.71303 26.1952 0.812967 28.0952 0.812967 30.4391V43.6098C0.812967 45.9536 2.71303 47.8537 5.05687 47.8537H18.2276C20.5714 47.8537 22.4715 45.9536 22.4715 43.6098V30.4391C22.4715 28.0952 20.5714 26.1952 18.2276 26.1952ZM5.05687 26.0488C2.63221 26.0488 0.666626 28.0144 0.666626 30.4391V43.6098C0.666626 46.0345 2.6322 48 5.05687 48H18.2276C20.6523 48 22.6178 46.0345 22.6178 43.6098V30.4391C22.6178 28.0144 20.6523 26.0488 18.2276 26.0488H5.05687Z" fill="url(#paint6_linear_65_941)"></path><path fill-rule="evenodd" clip-rule="evenodd" d="M18.2276 26.1952H5.05687C2.71303 26.1952 0.812967 28.0952 0.812967 30.4391V43.6098C0.812967 45.9536 2.71303 47.8537 5.05687 47.8537H18.2276C20.5714 47.8537 22.4715 45.9536 22.4715 43.6098V30.4391C22.4715 28.0952 20.5714 26.1952 18.2276 26.1952ZM5.05687 26.0488C2.63221 26.0488 0.666626 28.0144 0.666626 30.4391V43.6098C0.666626 46.0345 2.6322 48 5.05687 48H18.2276C20.6523 48 22.6178 46.0345 22.6178 43.6098V30.4391C22.6178 28.0144 20.6523 26.0488 18.2276 26.0488H5.05687Z" fill="url(#paint7_radial_65_941)"></path></g><defs><filter id="filter0_b_65_941" x="-8.11386" y="-8.78049" width="39.5122" height="39.5121" filterUnits="userSpaceOnUse" color-interpolation-filters="sRGB"><feGaussianBlur stdDeviation="4.39024"></feGaussianBlur></filter><filter id="filter1_b_65_941" x="17.9349" y="-8.78049" width="39.5122" height="39.5121" filterUnits="userSpaceOnUse" color-interpolation-filters="sRGB"><feGaussianBlur stdDeviation="4.39024"></feGaussianBlur></filter><filter id="filter2_b_65_941" x="17.9349" y="17.2683" width="39.5122" height="39.5121" filterUnits="userSpaceOnUse" color-interpolation-filters="sRGB"><feGaussianBlur stdDeviation="4.39024"></feGaussianBlur></filter><filter id="filter3_b_65_941" x="-8.11386" y="17.2683" width="39.5122" height="39.5121" filterUnits="userSpaceOnUse" color-interpolation-filters="sRGB"><feGaussianBlur stdDeviation="4.39024"></feGaussianBlur></filter><linearGradient id="paint0_linear_65_941" x1="3.82566" y1="-0.783972" x2="24.4012" y2="11.2294" gradientUnits="userSpaceOnUse"><stop offset="0.188941" stop-color="#F1FFE7" stop-opacity="0.523483"></stop><stop offset="0.526042" stop-color="#8AFF88"></stop><stop offset="1" stop-color="#D5FFB4" stop-opacity="0.1"></stop></linearGradient><radialGradient id="paint1_radial_65_941" cx="0" cy="0" r="1" gradientUnits="userSpaceOnUse" gradientTransform="translate(3.94716 21.2326) rotate(-50.9773) scale(17.2389 28.1876)"><stop stop-color="white"></stop><stop offset="1" stop-color="white" stop-opacity="0"></stop></radialGradient><linearGradient id="paint2_linear_65_941" x1="29.8744" y1="-0.783972" x2="50.45" y2="11.2294" gradientUnits="userSpaceOnUse"><stop offset="0.188941" stop-color="#F1FFE7" stop-opacity="0.523483"></stop><stop offset="0.526042" stop-color="#8AFF88"></stop><stop offset="1" stop-color="#D5FFB4" stop-opacity="0.1"></stop></linearGradient><radialGradient id="paint3_radial_65_941" cx="0" cy="0" r="1" gradientUnits="userSpaceOnUse" gradientTransform="translate(29.9959 21.2326) rotate(-50.9773) scale(17.2389 28.1876)"><stop stop-color="white"></stop><stop offset="1" stop-color="white" stop-opacity="0"></stop></radialGradient><linearGradient id="paint4_linear_65_941" x1="29.8744" y1="25.2649" x2="50.45" y2="37.2782" gradientUnits="userSpaceOnUse"><stop offset="0.188941" stop-color="#F1FFE7" stop-opacity="0.523483"></stop><stop offset="0.526042" stop-color="#8AFF88"></stop><stop offset="1" stop-color="#D5FFB4" stop-opacity="0.1"></stop></linearGradient><radialGradient id="paint5_radial_65_941" cx="0" cy="0" r="1" gradientUnits="userSpaceOnUse" gradientTransform="translate(29.9959 47.2814) rotate(-50.9773) scale(17.2389 28.1876)"><stop stop-color="white"></stop><stop offset="1" stop-color="white" stop-opacity="0"></stop></radialGradient><linearGradient id="paint6_linear_65_941" x1="3.82566" y1="25.2649" x2="24.4012" y2="37.2782" gradientUnits="userSpaceOnUse"><stop offset="0.188941" stop-color="#F1FFE7" stop-opacity="0.523483"></stop><stop offset="0.526042" stop-color="#8AFF88"></stop><stop offset="1" stop-color="#D5FFB4" stop-opacity="0.1"></stop></linearGradient><radialGradient id="paint7_radial_65_941" cx="0" cy="0" r="1" gradientUnits="userSpaceOnUse" gradientTransform="translate(3.94716 47.2814) rotate(-50.9773) scale(17.2389 28.1876)"><stop stop-color="white"></stop><stop offset="1" stop-color="white" stop-opacity="0"></stop></radialGradient></defs></svg>